<?xml version="1.0" encoding="UTF-8"?>
<svg id="Layer_2" data-name="Layer 2" xmlns="http://www.w3.org/2000/svg" viewBox="0 0 1040.66 1040.66">
  <defs>
    <style>
      .cls-1 {
        fill: #fff;
      }
    </style>
  </defs>
  <g id="Layer_1-2" data-name="Layer 1">
    <g>
      <path d="m198.25,1031l-.9-.05c-101.02-6.06-181.59-86.62-187.66-187.64h0c-12.89-214.52-12.92-429.63-.07-644.15l.11-1.77C15.78,96.35,96.35,15.77,197.39,9.71l.87-.05c214.52-12.87,429.63-12.87,644.15,0l.87.05c101.03,6.06,181.61,86.65,187.66,187.68l.11,1.77c12.85,214.53,12.82,429.63-.07,644.15h0c-6.07,101.02-86.64,181.58-187.66,187.64l-.9.05c-214.52,12.87-429.63,12.87-644.15,0Z"/>
      <g>
        <path class="cls-1" d="m710.71,663.78c0,43.22-17.52,82.36-45.85,110.69-28.33,28.33-67.47,45.86-110.7,45.86H220.33c0-43.23,17.52-82.36,45.85-110.69,26-26.01,61.12-42.91,100.14-45.5,3.49-.24,7-.36,10.55-.36h333.85Z"/>
        <path class="cls-1" d="m765.53,442.96c0,43.23-17.52,82.36-45.86,110.69-28.33,28.34-67.46,45.86-110.69,45.86h-333.85c0-43.22,17.53-82.36,45.86-110.69s67.47-45.86,110.69-45.86h333.85Z"/>
        <path class="cls-1" d="m820.33,220.33c0,43.23-17.52,82.36-45.86,110.69-28.33,28.34-67.46,45.86-110.69,45.86h-333.85c0-43.22,17.53-82.36,45.86-110.69,28.33-28.33,67.47-45.86,110.69-45.86h333.85Z"/>
      </g>
    </g>
  </g>
</svg>